<svg xmlns="http://www.w3.org/2000/svg" xmlns:android="http://schemas.android.com/apk/res/android" width="30dp" height="30dp" viewportWidth="400" viewportHeight="400">
	<path fill="#76DFEB" d="m134.801,387.523v-315.801c0,-17.73 14.371,-32.102 32.098,-32.102h138.223c-1.105,-16.875 -15.113,-29.996 -32.023,-30h-146.199c-17.727,0 -32.098,14.371 -32.098,32.102v315.801c0,17.727 14.371,32.098 32.098,32.098h7.977c-0.043,-0.695 -0.074,-1.395 -0.074,-2.098zM134.801,387.523"/>
	<path fill="#00b3c6" d="m219.57,362.863h-39.141c-5.523,0 -10,-4.477 -10,-10 0,-5.523 4.477,-10 10,-10h39.141c5.523,0 10,4.477 10,10 0,5.523 -4.477,10 -10,10zM219.57,362.863"/>
	<path fill="#2A687C" d="m315,42.102c0,-23.254 -18.848,-42.102 -42.102,-42.102h-145.797c-23.254,0 -42.102,18.848 -42.102,42.102v315.797c0,23.254 18.848,42.102 42.102,42.102h145.797c23.254,0 42.102,-18.848 42.102,-42.102zM105,72h190v234h-190zM126.898,20h146.203c11.945,-0.148 21.75,9.422 21.898,21.367v0.355,10.277h-190v-10.277c-0.047,-11.949 9.598,-21.676 21.547,-21.723zM273.102,380h-146.203c-12.184,0 -21.898,-10.293 -21.898,-22.477v-31.523h190v31.523c0,12.184 -9.715,22.477 -21.898,22.477zM273.102,380"/>
</svg>
